<svg xmlns="http://www.w3.org/2000/svg" fill="none" viewBox="-1 -1 21.33 21.33" stroke="#6366f180" aria-hidden="true" id="Chat-Bubble-Left-Right--Streamline-Heroicons-Outline" height="21.33" width="21.33">
  <desc>
    Chat Bubble Left Right Streamline Icon: https://streamlinehq.com
  </desc>
  <path stroke-linecap="round" stroke-linejoin="round" d="M16.3096875 6.854901249999998c0.7119883333333332 0.2287383333333333 1.208125 0.9085099999999998 1.208125 1.6889587499999998v3.4520158333333324c0 0.9149533333333332 -0.6821879166666666 1.6913749999999999 -1.5947249999999997 1.76627875 -0.27384166666666665 0.021746249999999998 -0.5476833333333333 0.04188166666666666 -0.821525 0.057989999999999986v2.4895429166666663l-2.41625 -2.41625c-1.0905341666666666 0 -2.1697925 -0.04429791666666666 -3.237774999999999 -0.13128291666666667a1.70345625 1.70345625 0 0 1 -0.6644687499999998 -0.1949108333333333m7.52661875 -6.712342499999999a1.712315833333333 1.712315833333333 0 0 0 -0.38337833333333327 -0.07651458333333333 39.175466666666665 39.175466666666665 0 0 0 -6.481993333333333 0c-0.9109262499999999 0.07570916666666666 -1.591503333333333 0.8513254166666665 -1.591503333333333 1.7654733333333332v3.4520158333333324c0 0.6741337499999999 0.3704916666666666 1.2725583333333332 0.9302562499999999 1.5713679166666665m7.52661875 -6.712342499999999V5.345550416666666c0 -1.3055804166666665 -0.9278399999999998 -2.4371908333333328 -2.2229499999999995 -2.6055229166666662A39.02646458333333 39.02646458333333 0 0 0 9.0609375 2.41625c-1.70345625 0 -3.3811391666666664 0.11034208333333333 -5.025799999999999 0.3237775 -1.29511 0.1683320833333333 -2.2229499999999995 1.2999425 -2.2229499999999995 2.6055229166666662v5.014524166666666c0 1.3055804166666665 0.9278399999999998 2.4371908333333328 2.2229499999999995 2.6055229166666662 0.46472541666666656 0.06040624999999999 0.9318670833333332 0.11275833333333334 1.4014249999999997 0.1562508333333333V16.913749999999997l3.3465062499999996 -3.3465062499999996" stroke-width="2"></path>
</svg>